<svg width="11" height="10" viewBox="0 0 11 10" fill="none" xmlns="http://www.w3.org/2000/svg">
<path d="M5.15882 7.92745L2.47926 9.54553C2.40052 9.5844 2.32744 9.60015 2.26002 9.59277C2.1931 9.58489 2.12789 9.56176 2.06441 9.52338C2.00043 9.48401 1.95221 9.4284 1.91973 9.35655C1.88725 9.2847 1.8843 9.20621 1.91087 9.12108L2.62394 6.0872L0.265487 4.04246C0.199052 3.98833 0.155253 3.92362 0.134093 3.84832C0.112932 3.77303 0.117607 3.70093 0.148118 3.63204C0.178629 3.56314 0.219228 3.50655 0.269916 3.46226C0.321096 3.41945 0.389992 3.39041 0.476604 3.37516L3.58873 3.10351L4.80229 0.230548C4.83575 0.149349 4.88398 0.0907873 4.94697 0.054863C5.00996 0.0189387 5.08058 0.000976563 5.15882 0.000976562C5.23707 0.000976562 5.30793 0.0189387 5.37141 0.054863C5.4349 0.0907873 5.48288 0.149349 5.51536 0.230548L6.72891 3.10351L9.8403 3.37516C9.9274 3.38992 9.99655 3.4192 10.0477 3.463C10.0989 3.5063 10.1398 3.56265 10.1703 3.63204C10.2003 3.70093 10.2047 3.77303 10.1835 3.84832C10.1624 3.92362 10.1186 3.98833 10.0522 4.04246L7.6937 6.0872L8.40677 9.12108C8.43433 9.20523 8.43162 9.28347 8.39865 9.35581C8.36568 9.42816 8.31721 9.48376 8.25323 9.52264C8.19024 9.56201 8.12504 9.58539 8.05762 9.59277C7.99069 9.60015 7.91786 9.5844 7.83912 9.54553L5.15882 7.92745Z" fill="#F9A21E"/>
</svg>
