<svg width="15" height="12" viewBox="0 0 15 12" fill="none" xmlns="http://www.w3.org/2000/svg">
<path d="M1.29004 2.2197L4.7409 0.964844L8.19177 2.2197L6.62319 3.16085V4.10199C6.62319 4.10199 6.2047 3.78828 4.7409 3.78828C3.27711 3.78828 2.85861 4.10199 2.85861 4.10199V3.16085L1.29004 2.2197ZM1.29004 2.2197V4.72942" stroke="black" stroke-width="1.10726" stroke-linecap="round" stroke-linejoin="round"/>
<path d="M6.62294 3.78759V4.34537C6.62294 5.4233 5.7803 6.29731 4.74065 6.29731C3.701 6.29731 2.85836 5.4233 2.85836 4.34537V3.78759M9.33219 5.37498C9.33219 5.37498 9.63649 5.1535 10.7012 5.1535C11.766 5.1535 12.0703 5.37436 12.0703 5.37436M9.33219 5.37498V4.72873L8.19152 4.1013L10.7012 3.16016L13.211 4.1013L12.0703 4.72873V5.37436M9.33219 5.37498V5.55568C9.33219 5.91878 9.47643 6.267 9.73317 6.52375C9.98992 6.7805 10.3381 6.92474 10.7012 6.92474C11.0643 6.92474 11.4126 6.7805 11.6693 6.52375C11.9261 6.267 12.0703 5.91878 12.0703 5.55568V5.37436M9.76009 11.003H12.0847C12.5697 11.003 12.955 10.7671 13.3013 10.4371C14.0103 9.76197 12.8464 9.22238 12.4028 8.95824C12.0083 8.72539 11.5703 8.57591 11.1157 8.51903C10.6612 8.46216 10.1998 8.49911 9.76009 8.62758M2.47249 8.44688C1.88083 8.77754 0.329193 9.45202 1.2741 10.2959C1.73589 10.7081 2.24976 11.003 2.89664 11.003H6.58467C7.23092 11.003 7.74542 10.7081 8.2072 10.2959C9.15211 9.45202 7.60048 8.77754 7.00881 8.44688C5.62094 7.672 3.86037 7.672 2.47249 8.44688Z" stroke="black" stroke-width="1.10726" stroke-linecap="round" stroke-linejoin="round"/>
</svg>
