<svg width="24" height="24" viewBox="0 0 24 24" fill="none" xmlns="http://www.w3.org/2000/svg">
<path d="M16.5625 3.5625C17.2799 3.56246 17.9702 3.83655 18.4921 4.3287C19.0141 4.82085 19.3282 5.49385 19.3703 6.21L19.375 6.375V10.4531L19.9319 10.2056C20.5075 9.94969 21.1712 10.3463 21.2444 10.9537L21.25 11.0625V18.5625C21.2501 19.0355 21.0715 19.4912 20.7498 19.838C20.4282 20.1849 19.9873 20.3973 19.5156 20.4328L19.375 20.4375H4.375C3.90196 20.4376 3.44634 20.259 3.09949 19.9373C2.75263 19.6157 2.54017 19.1748 2.50469 18.7031L2.5 18.5625V11.0625C2.5 10.4325 3.13281 9.98719 3.71594 10.1672L3.81906 10.2056L4.375 10.4531V6.375C4.37496 5.65761 4.64905 4.96733 5.1412 4.44538C5.63335 3.92343 6.30635 3.60927 7.0225 3.56719L7.1875 3.5625H16.5625ZM16.5625 5.4375H7.1875C6.93886 5.4375 6.7004 5.53627 6.52459 5.71209C6.34877 5.8879 6.25 6.12636 6.25 6.375V11.2866L11.875 13.7869L17.5 11.2866V6.375C17.5 6.12636 17.4012 5.8879 17.2254 5.71209C17.0496 5.53627 16.8111 5.4375 16.5625 5.4375ZM11.875 8.25C12.1139 8.25027 12.3438 8.34176 12.5175 8.5058C12.6913 8.66983 12.7958 8.89402 12.8098 9.13256C12.8239 9.3711 12.7462 9.60598 12.5929 9.78922C12.4395 9.97246 12.222 10.0902 11.9847 10.1184L11.875 10.125H10C9.76105 10.1247 9.53122 10.0332 9.35747 9.8692C9.18371 9.70517 9.07915 9.48098 9.06515 9.24244C9.05115 9.0039 9.12876 8.76902 9.28212 8.58578C9.43549 8.40254 9.65304 8.28478 9.89031 8.25656L10 8.25H11.875Z" fill="white"/>
</svg>
