<svg width="23" height="24" viewBox="0 0 23 24" fill="none" xmlns="http://www.w3.org/2000/svg">
<g clip-path="url(#clip0_2092_5890)">
<path d="M11.25 12L2.8575 8.6475L3.375 21H1.125L1.665 8.16375L0 7.5L11.25 3L22.5 7.5L11.25 12ZM11.25 6.375C10.6313 6.375 10.125 6.6225 10.125 6.9375C10.125 7.2525 10.6313 7.5 11.25 7.5C11.8687 7.5 12.375 7.2525 12.375 6.9375C12.375 6.6225 11.8687 6.375 11.25 6.375ZM11.25 13.125L17.5163 10.6163C18.315 11.6738 18.8663 12.945 19.0462 14.3287C18.7087 14.2837 18.36 14.25 18 14.25C15.1313 14.25 12.6225 15.7913 11.25 18.0863C10.553 16.9174 9.56461 15.9494 8.38145 15.277C7.1983 14.6046 5.86089 14.2507 4.5 14.25C4.14 14.25 3.79125 14.2837 3.45375 14.3287C3.63375 12.945 4.185 11.6738 4.98375 10.6163L11.25 13.125Z" fill="white"/>
</g>
<defs>
<clipPath id="clip0_2092_5890">
<rect width="22.5" height="22.5" fill="white" transform="translate(0 0.75)"/>
</clipPath>
</defs>
</svg>
