<svg width="11" height="10" viewBox="0 0 11 10" fill="none" xmlns="http://www.w3.org/2000/svg">
<path d="M5.36585 7.92745L2.68629 9.54553C2.60755 9.5844 2.53448 9.60015 2.46706 9.59277C2.40013 9.58489 2.33492 9.56176 2.27144 9.52338C2.20747 9.48401 2.15924 9.4284 2.12676 9.35655C2.09428 9.2847 2.09133 9.20621 2.1179 9.12108L2.83097 6.0872L0.472518 4.04246C0.406083 3.98833 0.362285 3.92362 0.341124 3.84832C0.319963 3.77303 0.324638 3.70093 0.355149 3.63204C0.38566 3.56314 0.42626 3.50655 0.476947 3.46226C0.528127 3.41945 0.597023 3.39041 0.683635 3.37516L3.79576 3.10351L5.00932 0.230548C5.04278 0.149349 5.09101 0.0907873 5.154 0.054863C5.21699 0.0189387 5.28761 0.000976563 5.36585 0.000976562C5.4441 0.000976562 5.51496 0.0189387 5.57845 0.054863C5.64193 0.0907873 5.68991 0.149349 5.72239 0.230548L6.93594 3.10351L10.0473 3.37516C10.1344 3.38992 10.2036 3.4192 10.2548 3.463C10.3059 3.5063 10.3468 3.56265 10.3773 3.63204C10.4073 3.70093 10.4117 3.77303 10.3906 3.84832C10.3694 3.92362 10.3256 3.98833 10.2592 4.04246L7.90073 6.0872L8.6138 9.12108C8.64136 9.20523 8.63866 9.28347 8.60568 9.35581C8.57271 9.42816 8.52424 9.48376 8.46026 9.52264C8.39727 9.56201 8.33207 9.58539 8.26465 9.59277C8.19772 9.60015 8.12489 9.5844 8.04615 9.54553L5.36585 7.92745Z" fill="#CDCFD4"/>
</svg>
