<svg width="11" height="10" viewBox="0 0 11 10" fill="none" xmlns="http://www.w3.org/2000/svg">
<path d="M5.25648 7.92745L2.57692 9.54553C2.49818 9.5844 2.4251 9.60015 2.35768 9.59277C2.29075 9.58489 2.22555 9.56176 2.16207 9.52338C2.09809 9.48401 2.04986 9.4284 2.01738 9.35655C1.9849 9.2847 1.98195 9.20621 2.00853 9.12108L2.7216 6.0872L0.363143 4.04246C0.296708 3.98833 0.25291 3.92362 0.231749 3.84832C0.210588 3.77303 0.215263 3.70093 0.245774 3.63204C0.276285 3.56314 0.316885 3.50655 0.367572 3.46226C0.418752 3.41945 0.487648 3.39041 0.57426 3.37516L3.68639 3.10351L4.89994 0.230548C4.9334 0.149349 4.98163 0.0907873 5.04462 0.054863C5.10761 0.0189387 5.17823 0.000976563 5.25648 0.000976562C5.33472 0.000976562 5.40559 0.0189387 5.46907 0.054863C5.53255 0.0907873 5.58053 0.149349 5.61301 0.230548L6.82657 3.10351L9.93796 3.37516C10.0251 3.38992 10.0942 3.4192 10.1454 3.463C10.1966 3.5063 10.2374 3.56265 10.2679 3.63204C10.2979 3.70093 10.3024 3.77303 10.2812 3.84832C10.26 3.92362 10.2162 3.98833 10.1498 4.04246L7.79136 6.0872L8.50443 9.12108C8.53199 9.20523 8.52928 9.28347 8.49631 9.35581C8.46334 9.42816 8.41486 9.48376 8.35089 9.52264C8.2879 9.56201 8.22269 9.58539 8.15527 9.59277C8.08835 9.60015 8.01551 9.5844 7.93678 9.54553L5.25648 7.92745Z" fill="#F9A21E"/>
</svg>
