<svg width="104" height="103" viewBox="0 0 104 103" fill="none" xmlns="http://www.w3.org/2000/svg">
<g clip-path="url(#clip0_3057_10689)">
<mask id="mask0_3057_10689" style="mask-type:luminance" maskUnits="userSpaceOnUse" x="0" y="0" width="104" height="103">
<path d="M103.25 0H0.75V102.5H103.25V0Z" fill="white"/>
</mask>
<g mask="url(#mask0_3057_10689)">
<mask id="mask1_3057_10689" style="mask-type:luminance" maskUnits="userSpaceOnUse" x="0" y="4" width="103" height="104">
<path d="M0.339844 4.50977H102.84V107.01H0.339844V4.50977Z" fill="white"/>
</mask>
<g mask="url(#mask1_3057_10689)">
<path d="M30.1945 77.5672L30.54 80.2352C30.6145 80.8104 31.1413 81.2164 31.7167 81.1421L34.404 80.7941C34.9013 80.7296 35.3749 81.0256 35.5347 81.5013L36.3979 84.0698C36.5826 84.6198 37.1782 84.9156 37.7283 84.7309L40.4609 83.8126C40.9335 83.6536 41.4526 83.8488 41.7035 84.2796L43.1544 86.7707C43.4462 87.2721 44.0893 87.4418 44.5908 87.1499L46.8697 85.8228C47.3041 85.5698 47.857 85.6601 48.1882 86.0382L49.9265 88.0215C50.3089 88.4578 50.9726 88.5016 51.4089 88.1193L53.432 86.3462C53.8095 86.0154 54.3682 85.9978 54.7657 86.3042L56.8965 87.9464C57.3561 88.3006 58.0157 88.2151 58.3698 87.7557L60.0241 85.6093C60.3303 85.212 60.8745 85.0868 61.3236 85.3098L63.7504 86.5158C64.27 86.7739 64.9003 86.562 65.1585 86.0425L66.4415 83.4608C66.6632 83.0144 67.1683 82.7854 67.6502 82.9126L70.4377 83.6483C70.9987 83.7963 71.5734 83.4617 71.7216 82.9006L72.3945 80.3508C72.5227 79.8646 72.9776 79.5374 73.4793 79.5705L76.1107 79.744C76.6897 79.7821 77.19 79.3438 77.228 78.7649L77.4049 76.0804C77.438 75.5798 77.8205 75.1723 78.3184 75.1077L80.9862 74.7624C81.5615 74.6877 81.9676 74.1609 81.8931 73.5857L81.5451 70.8983C81.4807 70.4009 81.777 69.9274 82.2523 69.7676L84.8209 68.9043C85.3708 68.7195 85.6668 68.124 85.4821 67.5739L84.5635 64.8412C84.4049 64.3688 84.5999 63.8496 85.0309 63.5988L87.5221 62.1479C88.0232 61.856 88.193 61.2129 87.9012 60.7116L86.5738 58.4327C86.3208 57.9982 86.4111 57.4454 86.7894 57.114L88.7726 55.3757C89.2092 54.9934 89.2527 54.3296 88.8705 53.8933L87.0973 51.8702C86.7666 51.4927 86.7489 50.934 87.0553 50.5365L88.6975 48.4057C89.0517 47.9461 88.9663 47.2865 88.5067 46.9323L86.3605 45.2781C85.9633 44.972 85.838 44.4277 86.0611 43.9788L87.2668 41.552C87.5252 41.0323 87.3132 40.4019 86.7937 40.1437L84.212 38.8609C83.7656 38.639 83.5365 38.1339 83.6638 37.652L84.3994 34.8645C84.5475 34.3035 84.2128 33.7288 83.6518 33.5809L81.1019 32.9077C80.6156 32.7794 80.2887 32.3247 80.3217 31.8229L80.4952 29.1915C80.5333 28.6128 80.095 28.1125 79.5161 28.0742L76.8316 27.8973C76.3308 27.8644 75.9233 27.4815 75.8587 26.984L75.5134 24.3161C75.4389 23.7407 74.912 23.3346 74.3367 23.4092L71.6495 23.7571C71.1521 23.8215 70.6786 23.5252 70.5188 23.0499L69.6555 20.4813C69.4706 19.9314 68.8749 19.6353 68.325 19.8203L65.5924 20.7387C65.1198 20.8975 64.6007 20.7023 64.3498 20.2715L62.8992 17.7803C62.6072 17.279 61.964 17.1092 61.4626 17.4012L59.1837 18.7283C58.7492 18.9813 58.1965 18.8911 57.865 18.513L56.1269 16.5296C55.7445 16.093 55.0809 16.0496 54.6446 16.4319L52.6212 18.2048C52.2438 18.5356 51.6851 18.5533 51.2876 18.2469L49.1567 16.6046C48.6973 16.2505 48.0377 16.3359 47.6835 16.7955L46.0293 18.9417C45.7232 19.3389 45.179 19.4644 44.7296 19.2412L42.3031 18.0354C41.7837 17.7771 41.1531 17.989 40.895 18.5086L39.6121 21.0902C39.3901 21.5366 38.8852 21.7658 38.4032 21.6384L35.6156 20.9028C35.0548 20.7549 34.4801 21.0895 34.332 21.6506L33.659 24.2004C33.5306 24.6866 33.076 25.0136 32.5741 24.9805L29.9427 24.807C29.3636 24.7689 28.8635 25.2074 28.8254 25.7864L28.6484 28.4706C28.6155 28.9714 28.2328 29.379 27.735 29.4434L25.0672 29.789C24.4918 29.8633 24.0858 30.3902 24.1603 30.9656L24.5083 33.653C24.5726 34.1501 24.2764 34.6239 23.801 34.7834L21.2324 35.6467C20.6826 35.8316 20.3864 36.4273 20.5713 36.9771L21.4895 39.7099C21.6486 40.1824 21.4534 40.7015 21.0226 40.9524L18.5316 42.4031C18.03 42.6952 17.8604 43.3382 18.1523 43.8396L19.4794 46.1185C19.7324 46.553 19.6421 47.1058 19.2641 47.4372L17.2807 49.1753C16.8444 49.5578 16.8008 50.2213 17.1832 50.6577L18.9559 52.681C19.2868 53.0584 19.3044 53.6171 18.998 54.0146L17.3557 56.1455C17.0016 56.6049 17.087 57.2645 17.5464 57.6186L19.6929 59.2729C20.0902 59.5791 20.2155 60.1232 19.9923 60.5726L18.7865 62.9991C18.5285 63.5187 18.7402 64.1491 19.2598 64.4072L21.8415 65.6902C22.2878 65.9121 22.5169 66.4169 22.3897 66.8992L21.6539 69.6866C21.506 70.2474 21.8407 70.8221 22.4017 70.9702L24.9514 71.6433C25.4376 71.7715 25.7648 72.2265 25.7317 72.7281L25.5582 75.3595C25.5201 75.9386 25.9586 76.4387 26.5375 76.4769L29.2219 76.6539C29.7226 76.687 30.13 77.0692 30.1945 77.5672Z" fill="#32BC41"/>
<mask id="mask2_3057_10689" style="mask-type:luminance" maskUnits="userSpaceOnUse" x="-14" y="-13" width="133" height="132">
<path d="M-13.0703 22.2598L83.248 -12.7979L118.306 83.5204L21.9873 118.578L-13.0703 22.2598Z" fill="white"/>
</mask>
<g mask="url(#mask2_3057_10689)">
<path d="M43.9762 53.3474L50.8229 60.4373C51.3627 60.9963 51.1214 62.1064 50.2844 62.9147C49.4474 63.723 48.3295 63.9254 47.7897 63.3664L40.9429 56.2765C40.4031 55.7175 40.6444 54.6074 41.4814 53.7991C42.3185 52.9908 43.4363 52.7884 43.9762 53.3474Z" fill="white"/>
<path d="M65.863 47.4179L50.4976 62.7834C49.7376 63.5434 48.3797 63.4197 47.4673 62.5073C46.5549 61.5949 46.4312 60.237 47.1912 59.477L62.5565 44.1115C63.3165 43.3515 64.6744 43.4752 65.5868 44.3876C66.4992 45.3 66.623 46.6579 65.863 47.4179Z" fill="white"/>
</g>
</g>
</g>
</g>
<defs>
<clipPath id="clip0_3057_10689">
<rect width="102.5" height="102.5" fill="white" transform="translate(0.75)"/>
</clipPath>
</defs>
</svg>
