<svg width="25" height="24" viewBox="0 0 25 24" fill="none" xmlns="http://www.w3.org/2000/svg">
<path d="M13.5707 23.2584L13.5597 23.2604L13.4887 23.2954L13.4687 23.2994L13.4547 23.2954L13.3837 23.2604C13.373 23.2571 13.365 23.2588 13.3597 23.2654L13.3557 23.2754L13.3387 23.7034L13.3437 23.7234L13.3537 23.7364L13.4577 23.8104L13.4727 23.8144L13.4847 23.8104L13.5887 23.7364L13.6007 23.7204L13.6047 23.7034L13.5877 23.2764C13.585 23.2658 13.5794 23.2598 13.5707 23.2584ZM13.8357 23.1454L13.8227 23.1474L13.6377 23.2404L13.6277 23.2504L13.6247 23.2614L13.6427 23.6914L13.6477 23.7034L13.6557 23.7104L13.8567 23.8034C13.8694 23.8068 13.879 23.8041 13.8857 23.7954L13.8897 23.7814L13.8557 23.1674C13.8524 23.1554 13.8457 23.1481 13.8357 23.1454ZM13.1207 23.1474C13.1163 23.1448 13.111 23.1439 13.106 23.145C13.101 23.1461 13.0966 23.1491 13.0937 23.1534L13.0877 23.1674L13.0537 23.7814C13.0544 23.7934 13.06 23.8014 13.0707 23.8054L13.0857 23.8034L13.2867 23.7104L13.2967 23.7024L13.3007 23.6914L13.3177 23.2614L13.3147 23.2494L13.3047 23.2394L13.1207 23.1474Z" fill="#1E1E1E"/>
<path d="M12.9814 2C18.5044 2 22.9814 6.477 22.9814 12C22.9814 17.523 18.5044 22 12.9814 22C7.45845 22 2.98145 17.523 2.98145 12C2.98145 6.477 7.45845 2 12.9814 2ZM12.9814 6C12.7162 6 12.4619 6.10536 12.2743 6.29289C12.0868 6.48043 11.9814 6.73478 11.9814 7V12C11.9815 12.2652 12.0869 12.5195 12.2744 12.707L15.2744 15.707C15.463 15.8892 15.7156 15.99 15.9778 15.9877C16.24 15.9854 16.4909 15.8802 16.6763 15.6948C16.8617 15.5094 16.9668 15.2586 16.9691 14.9964C16.9714 14.7342 16.8706 14.4816 16.6884 14.293L13.9814 11.586V7C13.9814 6.73478 13.8761 6.48043 13.6886 6.29289C13.501 6.10536 13.2467 6 12.9814 6Z" fill="#1E1E1E"/>
</svg>
