<svg width="25" height="24" viewBox="0 0 25 24" fill="none" xmlns="http://www.w3.org/2000/svg">
<path d="M2.93652 5.99805L8.43652 3.99805L13.9365 5.99805L11.4365 7.49805V8.99805C11.4365 8.99805 10.7695 8.49805 8.43652 8.49805C6.10352 8.49805 5.43652 8.99805 5.43652 8.99805V7.49805L2.93652 5.99805ZM2.93652 5.99805V9.99805" stroke="#1E1E1E" stroke-width="0.875" stroke-linecap="round" stroke-linejoin="round"/>
<path d="M11.4365 8.49805V9.38705C11.4365 11.105 10.0935 12.498 8.43652 12.498C6.77952 12.498 5.43652 11.105 5.43652 9.38705V8.49805M15.7545 11.028C15.7545 11.028 16.2395 10.675 17.9365 10.675C19.6335 10.675 20.1185 11.027 20.1185 11.027M15.7545 11.028V9.99805L13.9365 8.99805L17.9365 7.49805L21.9365 8.99805L20.1185 9.99805V11.027M15.7545 11.028V11.316C15.7545 11.8947 15.9844 12.4497 16.3936 12.859C16.8028 13.2682 17.3578 13.498 17.9365 13.498C18.5152 13.498 19.0702 13.2682 19.4794 12.859C19.8886 12.4497 20.1185 11.8947 20.1185 11.316V11.027M16.4365 19.998H20.1415C20.9145 19.998 21.5285 19.622 22.0805 19.096C23.2105 18.02 21.3555 17.16 20.6485 16.739C20.0198 16.3679 19.3216 16.1297 18.5971 16.039C17.8727 15.9484 17.1373 16.0073 16.4365 16.212M4.82152 15.924C3.87852 16.451 1.40552 17.526 2.91152 18.871C3.64752 19.528 4.46652 19.998 5.49752 19.998H11.3755C12.4055 19.998 13.2255 19.528 13.9615 18.871C15.4675 17.526 12.9945 16.451 12.0515 15.924C9.83952 14.689 7.03352 14.689 4.82152 15.924Z" stroke="#1E1E1E" stroke-width="0.875" stroke-linecap="round" stroke-linejoin="round"/>
</svg>
