<svg width="20" height="21" viewBox="0 0 20 21" fill="none" xmlns="http://www.w3.org/2000/svg">
<path d="M9.99988 16.7126L4.68096 19.9244C4.52466 20.0016 4.3796 20.0329 4.24577 20.0182C4.11292 20.0026 3.98349 19.9567 3.85748 19.8805C3.73049 19.8023 3.63476 19.6919 3.57028 19.5493C3.50581 19.4067 3.49995 19.2509 3.5527 19.0819L4.96815 13.0596L0.28662 9.00085C0.154746 8.8934 0.067807 8.76495 0.0258026 8.61549C-0.0162017 8.46603 -0.00692159 8.32292 0.0536428 8.18617C0.114207 8.04941 0.194797 7.93707 0.295412 7.84915C0.397004 7.76417 0.533762 7.70654 0.705687 7.67625L6.88325 7.13703L9.29215 1.43421C9.35858 1.27303 9.45431 1.15679 9.57935 1.08548C9.70438 1.01417 9.84456 0.978516 9.99988 0.978516C10.1552 0.978516 10.2959 1.01417 10.4219 1.08548C10.5479 1.15679 10.6431 1.27303 10.7076 1.43421L13.1165 7.13703L19.2926 7.67625C19.4655 7.70556 19.6027 7.76368 19.7043 7.85062C19.8059 7.93658 19.887 8.04843 19.9476 8.18617C20.0072 8.32292 20.016 8.46603 19.9739 8.61549C19.9319 8.76495 19.845 8.8934 19.7131 9.00085L15.0316 13.0596L16.4471 19.0819C16.5018 19.2489 16.4964 19.4043 16.4309 19.5478C16.3655 19.6914 16.2693 19.8018 16.1423 19.879C16.0172 19.9571 15.8878 20.0035 15.754 20.0182C15.6211 20.0329 15.4766 20.0016 15.3203 19.9244L9.99988 16.7126Z" fill="#F9A21E"/>
</svg>
