<svg width="61" height="61" viewBox="0 0 61 61" fill="none" xmlns="http://www.w3.org/2000/svg">
<path d="M42.7514 8.75C42.7514 8.15326 42.9885 7.58097 43.4104 7.15901C43.8324 6.73705 44.4047 6.5 45.0014 6.5H52.5014C53.0982 6.5 53.6705 6.73705 54.0924 7.15901C54.5144 7.58097 54.7514 8.15326 54.7514 8.75V16.25C54.7514 16.8467 54.5144 17.419 54.0924 17.841C53.6705 18.2629 53.0982 18.5 52.5014 18.5C51.9047 18.5 51.3324 18.2629 50.9104 17.841C50.4885 17.419 50.2514 16.8467 50.2514 16.25V14.18L36.8414 27.59C36.4196 28.0114 35.8477 28.248 35.2514 28.248C34.6552 28.248 34.0833 28.0114 33.6614 27.59L26.2514 20.18L13.5914 32.84C13.3855 33.0611 13.1371 33.2384 12.8611 33.3613C12.5851 33.4843 12.2871 33.5504 11.985 33.5558C11.6829 33.5611 11.3828 33.5055 11.1026 33.3924C10.8225 33.2792 10.568 33.1108 10.3543 32.8971C10.1407 32.6835 9.97223 32.429 9.85907 32.1488C9.74591 31.8686 9.69033 31.5685 9.69566 31.2664C9.70099 30.9643 9.76712 30.6664 9.89009 30.3904C10.0131 30.1144 10.1904 29.866 10.4114 29.66L24.6614 15.41C25.0833 14.9886 25.6552 14.752 26.2514 14.752C26.8477 14.752 27.4196 14.9886 27.8414 15.41L35.2514 22.82L47.0714 11H45.0014C44.4047 11 43.8324 10.7629 43.4104 10.341C42.9885 9.91903 42.7514 9.34674 42.7514 8.75ZM12.0014 42.5C12.5982 42.5 13.1705 42.7371 13.5924 43.159C14.0144 43.581 14.2514 44.1533 14.2514 44.75V52.25C14.2514 52.8467 14.0144 53.419 13.5924 53.841C13.1705 54.2629 12.5982 54.5 12.0014 54.5C11.4047 54.5 10.8324 54.2629 10.4104 53.841C9.98849 53.419 9.75144 52.8467 9.75144 52.25V44.75C9.75144 44.1533 9.98849 43.581 10.4104 43.159C10.8324 42.7371 11.4047 42.5 12.0014 42.5ZM26.2514 35.75C26.2514 35.1533 26.0144 34.581 25.5924 34.159C25.1705 33.7371 24.5982 33.5 24.0014 33.5C23.4047 33.5 22.8324 33.7371 22.4104 34.159C21.9885 34.581 21.7514 35.1533 21.7514 35.75V52.25C21.7514 52.8467 21.9885 53.419 22.4104 53.841C22.8324 54.2629 23.4047 54.5 24.0014 54.5C24.5982 54.5 25.1705 54.2629 25.5924 53.841C26.0144 53.419 26.2514 52.8467 26.2514 52.25V35.75ZM36.0014 39.5C36.5982 39.5 37.1705 39.7371 37.5924 40.159C38.0144 40.581 38.2514 41.1533 38.2514 41.75V52.25C38.2514 52.8467 38.0144 53.419 37.5924 53.841C37.1705 54.2629 36.5982 54.5 36.0014 54.5C35.4047 54.5 34.8324 54.2629 34.4104 53.841C33.9885 53.419 33.7514 52.8467 33.7514 52.25V41.75C33.7514 41.1533 33.9885 40.581 34.4104 40.159C34.8324 39.7371 35.4047 39.5 36.0014 39.5ZM50.2514 29.75C50.2514 29.1533 50.0144 28.581 49.5924 28.159C49.1705 27.7371 48.5982 27.5 48.0014 27.5C47.4047 27.5 46.8324 27.7371 46.4104 28.159C45.9885 28.581 45.7514 29.1533 45.7514 29.75V52.25C45.7514 52.8467 45.9885 53.419 46.4104 53.841C46.8324 54.2629 47.4047 54.5 48.0014 54.5C48.5982 54.5 49.1705 54.2629 49.5924 53.841C50.0144 53.419 50.2514 52.8467 50.2514 52.25V29.75Z" fill="#1E1E1E"/>
</svg>
