<svg width="61" height="61" viewBox="0 0 61 61" fill="none" xmlns="http://www.w3.org/2000/svg">
<path d="M17.295 55.7497V48.6072C16.55 41.1647 7.75 37.1797 7.75 25.7497C7.75 14.3247 14.5675 5.60971 28.205 5.74971C38.0225 5.85471 47.295 11.4647 47.295 22.8947L52.75 31.4647C52.75 37.1797 47.295 37.1797 47.295 37.1797C47.295 37.1797 48.66 51.4647 36.385 51.4647V55.7497" stroke="#1E1E1E" stroke-width="3.75" stroke-linecap="round" stroke-linejoin="round"/>
<path d="M27.75 30.75C29.0761 30.75 30.3479 30.2232 31.2855 29.2855C32.2232 28.3479 32.75 27.0761 32.75 25.75C32.75 24.4239 32.2232 23.1521 31.2855 22.2145C30.3479 21.2768 29.0761 20.75 27.75 20.75C26.4239 20.75 25.1521 21.2768 24.2145 22.2145C23.2768 23.1521 22.75 24.4239 22.75 25.75C22.75 27.0761 23.2768 28.3479 24.2145 29.2855C25.1521 30.2232 26.4239 30.75 27.75 30.75Z" stroke="#1E1E1E" stroke-width="3.75" stroke-linecap="round" stroke-linejoin="round"/>
<path d="M27.75 33.25C29.7391 33.25 31.6468 32.4598 33.0533 31.0533C34.4598 29.6468 35.25 27.7391 35.25 25.75C35.25 23.7609 34.4598 21.8532 33.0533 20.4467C31.6468 19.0402 29.7391 18.25 27.75 18.25C25.7609 18.25 23.8532 19.0402 22.4467 20.4467C21.0402 21.8532 20.25 23.7609 20.25 25.75C20.25 27.7391 21.0402 29.6468 22.4467 31.0533C23.8532 32.4598 25.7609 33.25 27.75 33.25Z" stroke="#1E1E1E" stroke-width="3.75" stroke-linecap="round" stroke-linejoin="round" stroke-dasharray="0.75 5"/>
</svg>
