<svg width="60" height="61" viewBox="0 0 60 61" fill="none" xmlns="http://www.w3.org/2000/svg">
<g clip-path="url(#clip0_2083_5821)">
<path d="M43.8471 0.5C38.7494 0.5 34.6163 4.63769 34.6163 9.73077C34.6163 15.8808 42.6932 24.2831 42.6932 32.7362H45.0009C45.0032 24.2831 53.0778 16.1231 53.0778 9.73077C53.0778 4.63769 48.9447 0.5 43.8471 0.5ZM43.8471 4.97231C44.4722 4.97261 45.0913 5.09605 45.6687 5.33558C46.2462 5.57511 46.7709 5.92604 47.2127 6.36834C47.6546 6.81063 48.005 7.33562 48.244 7.91334C48.483 8.49106 48.6058 9.11019 48.6055 9.73538C48.6052 10.3606 48.4818 10.9796 48.2422 11.5571C48.0027 12.1346 47.6518 12.6592 47.2095 13.1011C46.7672 13.5429 46.2422 13.8934 45.6645 14.1323C45.0868 14.3713 44.4676 14.4941 43.8424 14.4938C42.5795 14.4932 41.3685 13.9909 40.4759 13.0975C39.5833 12.204 39.0822 10.9926 39.0828 9.72962C39.0834 8.46667 39.5857 7.2557 40.4792 6.3631C41.3727 5.4705 42.5841 4.9717 43.8471 4.97231ZM30.0009 5.11538C14.7309 5.11538 2.30859 17.5377 2.30859 32.8077C2.30859 48.0777 14.7309 60.5 30.0009 60.5C45.2709 60.5 57.6932 48.0777 57.6932 32.8077C57.6932 28.1692 56.544 23.8169 54.5201 19.97C54.2132 20.5792 53.904 21.1585 53.5832 21.7746C52.9763 22.9469 52.3371 24.1308 51.7786 25.3077C52.3555 26.9577 52.7524 28.7023 52.9324 30.5H49.9047C49.7386 31.2731 49.6163 32 49.6163 32.7362V35.1154H52.9347C52.6202 38.3685 51.6113 41.5163 49.9763 44.3462H43.2009C43.7086 42.1815 44.0017 39.7885 44.2094 37.3515H39.6632C39.4453 39.7123 39.0363 42.0515 38.4401 44.3462H21.5617C20.7811 41.3261 20.3216 38.232 20.1909 35.1154H38.0755V32.7362C38.0573 31.9828 37.9606 31.2333 37.7871 30.5H20.1932C20.3239 27.3834 20.7834 24.2893 21.564 21.2692H33.8963C33.0952 19.758 32.3486 18.2186 31.6578 16.6538H23.1494C25.0578 12.2992 27.5801 9.73077 30.0009 9.73077C30.0009 8.12692 30.2894 6.62 30.7947 5.18692C30.5294 5.17769 30.2686 5.11538 30.0009 5.11538ZM20.4817 11.8215C19.5631 13.3566 18.7905 14.9745 18.174 16.6538H13.5586C15.5495 14.6311 17.8965 12.9929 20.4817 11.8215ZM10.0255 21.2692H16.8009C16.1026 24.3007 15.6923 27.3913 15.5755 30.5H7.06706C7.3816 27.2469 8.39045 24.0991 10.0255 21.2692ZM7.06706 35.1154H15.5778C15.714 38.4038 16.1386 41.5077 16.8032 44.3462H10.0255C8.39045 41.5163 7.3816 38.3685 7.06706 35.1154ZM13.5586 48.9615H18.174C18.8386 50.7523 19.6163 52.3608 20.4817 53.7938C17.8965 52.6225 15.5495 50.9843 13.5586 48.9615ZM23.1494 48.9615H36.8524C34.944 53.3162 32.4217 55.8846 30.0009 55.8846C27.5801 55.8846 25.0555 53.3162 23.1494 48.9615ZM41.8278 48.9615H46.4432C44.4523 50.9843 42.1054 52.6225 39.5201 53.7938C40.3855 52.3631 41.1632 50.7546 41.8278 48.9615Z" fill="#1E1E1E"/>
</g>
<defs>
<clipPath id="clip0_2083_5821">
<rect width="60" height="60" fill="white" transform="translate(0 0.5)"/>
</clipPath>
</defs>
</svg>
