<svg width="61" height="61" viewBox="0 0 61 61" fill="none" xmlns="http://www.w3.org/2000/svg">
<path d="M11.6016 2.96094C7.85156 2.96094 4.09687 5.77344 4.09687 11.3984L11.6016 26.3984L19.1016 11.3984C19.1016 5.77344 15.3516 2.96094 11.6016 2.96094ZM44.6836 7.53125C43.875 7.56523 43.0898 7.71875 42.4336 7.85938L42.8789 9.92188C43.5352 9.77539 44.2148 9.68281 44.7891 9.64062L44.6836 7.53125ZM11.6016 7.64844C13.6758 7.64844 15.3516 9.32773 15.3516 11.3984C15.3516 13.4727 13.6758 15.1484 11.6016 15.1484C9.53086 15.1484 7.85156 13.4727 7.85156 11.3984C7.85156 9.32773 9.53086 7.64844 11.6016 7.64844ZM47.0156 7.67188L46.6641 9.74609C47.2383 9.8668 47.8125 10.018 48.3164 10.3203L49.3359 8.46875C48.6211 8.08789 47.8242 7.7457 47.0156 7.67188ZM40.2773 8.45703C39.5625 8.73594 38.8477 8.98555 38.2383 9.23047L39.0703 11.1641C39.7148 10.8898 40.3945 10.6508 40.9688 10.4492L40.2773 8.45703ZM51.2578 10.0273L49.6523 11.3984C50.0742 11.8813 50.4023 12.4766 50.6602 12.957L52.5469 12.0078C52.1484 11.2402 51.7969 10.659 51.2578 10.0273ZM36.2813 10.1328C35.5664 10.4973 34.9805 10.8219 34.3477 11.1406L35.3789 12.9922C35.9883 12.6406 36.6562 12.3008 37.1953 12.0312L36.2813 10.1328ZM32.4961 12.2305C31.875 12.5938 31.2656 12.957 30.668 13.3555L31.8164 15.1133C32.3906 14.7383 32.9883 14.3867 33.5742 14.0352L32.4961 12.2305ZM53.2734 14.3281C52.582 14.4453 51.8789 14.5273 51.1875 14.6094C51.2344 15.1953 51.1992 15.8281 51.082 16.3203L53.1328 16.8008C53.25 15.957 53.3555 15.0898 53.2734 14.3281ZM28.8867 14.5273C28.3008 14.9258 27.7266 15.3359 27.1406 15.7344L28.3594 17.457C28.9219 17.0469 29.4961 16.6602 30.0703 16.2617L28.8867 14.5273ZM25.418 17C24.832 17.4219 24.2227 17.8906 23.7188 18.2773L24.9961 19.9531C25.6406 19.4844 26.0859 19.1328 26.6719 18.6992L25.418 17ZM50.3789 17.9375C50.0273 18.4766 49.6172 19.0156 49.207 19.4258L50.7422 20.8906C51.2461 20.293 51.7852 19.6836 52.1602 19.0742L50.3789 17.9375ZM22.043 19.5898C21.4688 20.0352 20.8945 20.4922 20.3906 20.9141L21.7266 22.543C22.2773 22.0859 22.8398 21.6172 23.3555 21.2422L22.043 19.5898ZM47.7539 20.7734C47.2148 21.207 46.6523 21.6289 46.1367 21.9805L47.3438 23.7148C47.9648 23.293 48.5742 22.8359 49.1016 22.4141L47.7539 20.7734ZM18.7617 22.2852C18.2109 22.7305 17.6836 23.1992 17.1445 23.6562L18.5156 25.2617C19.043 24.8047 19.5703 24.3477 20.1094 23.9023L18.7617 22.2852ZM44.4141 23.1055C43.8164 23.457 43.1953 23.8203 42.6328 24.125L43.6406 25.9883C44.2734 25.6016 44.9883 25.2617 45.5156 24.9102L44.4141 23.1055ZM15.5391 25.0508C15.0117 25.5195 14.4961 25.9883 13.9688 26.4688L15.3867 28.0391C15.9023 27.5703 16.4297 27.1016 16.9453 26.6328L15.5391 25.0508ZM40.793 25.0977C40.1719 25.4023 39.5508 25.7188 38.9297 26.0234L39.832 27.9219C40.5586 27.5703 41.0977 27.2773 41.7539 26.9727L40.793 25.0977ZM37.043 26.9023C36.3984 27.1953 35.7773 27.4766 35.1211 27.7461L35.9766 29.6797C36.6211 29.3984 37.2656 29.1055 37.9102 28.8125L37.043 26.9023ZM12.4219 27.9219C11.8242 28.4492 11.4082 28.8594 10.8633 29.3867L12.3516 30.9102C12.9023 30.3828 13.3477 29.9258 13.8633 29.4805L12.4219 27.9219ZM33.1992 28.6016C32.5547 28.8711 31.9102 29.1523 31.2656 29.4219L32.0859 31.3789C32.7422 31.1094 33.3867 30.8281 34.0312 30.5469L33.1992 28.6016ZM29.3203 30.2422C28.6758 30.5234 28.0312 30.8047 27.375 31.0625L28.1953 33.0195C28.8398 32.75 29.4961 32.4688 30.1406 32.1992L29.3203 30.2422ZM50.9766 31.0859C47.2266 31.0859 43.4766 33.8984 43.4766 39.5234L50.9766 54.5234L58.4766 39.5234C58.4766 33.8984 54.7266 31.0859 50.9766 31.0859ZM25.4297 31.8828C24.7617 32.1875 24.0586 32.4688 23.4844 32.7148L24.3164 34.6602C25.0078 34.3672 25.6641 34.0859 26.25 33.8281L25.4297 31.8828ZM21.5391 33.5469C20.9062 33.8398 20.168 34.168 19.6055 34.4258L20.4727 36.3477C21.1641 36.043 21.7734 35.7383 22.3828 35.4805L21.5391 33.5469ZM17.6719 35.3047C17.0156 35.6211 16.3359 35.9492 15.75 36.2422L16.6992 38.1289C17.332 37.8008 17.9883 37.4961 18.5625 37.2148L17.6719 35.3047ZM50.9766 35.7734C53.0508 35.7734 54.7266 37.4492 54.7266 39.5234C54.7266 41.5977 53.0508 43.2734 50.9766 43.2734C48.9023 43.2734 47.2266 41.5977 47.2266 39.5234C47.2266 37.4492 48.9023 35.7734 50.9766 35.7734ZM13.8516 37.2148C13.2305 37.5547 12.6094 37.9062 11.9766 38.2695L13.0312 40.0977C13.6289 39.7461 14.2383 39.418 14.8477 39.0898L13.8516 37.2148ZM10.1367 39.4062C9.4793 39.7812 8.84414 40.2852 8.29688 40.6484L9.57422 42.3359C10.1566 41.9141 10.7836 41.4805 11.2852 41.1758L10.1367 39.4062ZM6.63281 42.0547C6.07031 42.5703 5.51602 43.168 5.08594 43.6719L6.69141 45.043C7.14258 44.4922 7.53516 44.082 8.0625 43.6133L6.63281 42.0547ZM32.1562 42.207L32.3438 44.3047C32.9531 44.1992 33.5625 44.2695 34.1719 44.3633L34.5352 42.2891C33.7617 42.1719 32.9414 42.0898 32.1562 42.207ZM27.7969 43.3789L28.5938 45.3359C29.2031 45.0664 29.8359 44.8555 30.4805 44.6562C30.2578 43.9883 30.0938 43.3086 29.918 42.6289C29.1797 42.8398 28.4414 43.1211 27.7969 43.3789ZM36.8789 43.2734L35.6836 45.0078C36.1758 45.3711 36.6563 45.7578 37.043 46.2383L38.6367 44.8555C38.0391 44.2461 37.582 43.6719 36.8789 43.2734ZM25.8047 44.3281C25.1602 44.6562 24.5391 45.0312 23.918 45.3945L24.9844 47.2109C25.5938 46.8828 26.1914 46.4961 26.7891 46.1797L25.8047 44.3281ZM3.79805 45.6172C3.44414 46.3789 3.15703 47.1992 3.02344 47.9258L5.09766 48.2891C5.22422 47.6211 5.40586 47.1406 5.67188 46.5664C5.02852 46.2852 4.41445 45.9453 3.79805 45.6172ZM22.0898 46.5312C21.4922 46.918 20.9062 47.3047 20.3203 47.7031L21.4922 49.4609C22.0781 49.0742 22.6523 48.6758 23.2383 48.2891L22.0898 46.5312ZM39.9844 46.6719L38.2148 47.8203C38.5898 48.3828 38.9531 48.9688 39.293 49.5664L41.1211 48.5117C40.7109 47.8555 40.418 47.2695 39.9844 46.6719ZM18.5742 48.8984C17.9883 49.2852 17.4023 49.6602 16.8281 50.0703L18 51.8281C18.5625 51.418 19.1602 51.0312 19.7578 50.6328L18.5742 48.8984ZM5.12109 50.0117C4.44258 50.1523 3.7582 50.2695 3.07617 50.3984C3.19922 51.2188 3.52852 52.0156 3.82617 52.6484L5.73047 51.7344C5.47617 51.1484 5.23477 50.5391 5.12109 50.0117ZM42.1641 50.3398L40.3359 51.3945C40.6992 52.0273 41.1211 52.707 41.4609 53.2461L43.2305 52.1094C42.832 51.4883 42.4922 50.9023 42.1641 50.3398ZM15.0938 51.2188C14.5078 51.582 13.9336 51.9336 13.3242 52.2734L14.3672 54.1133C14.9883 53.75 15.6094 53.3867 16.207 53L15.0938 51.2188ZM6.73828 53.1289L5.29688 54.6758C5.94844 55.2969 6.75234 55.707 7.62891 55.8945L8.09766 53.8438C7.57734 53.7383 7.09102 53.4805 6.73828 53.1289ZM11.543 53.1641C10.9559 53.4336 10.3465 53.6445 9.71484 53.7734L10.1953 55.8359C10.9477 55.6836 11.6555 55.4023 12.3633 55.1094L11.543 53.1641ZM44.3906 53.7266L42.7617 55.0508C43.2656 55.6719 43.8867 56.2695 44.4258 56.6914L45.7266 55.0273C45.2109 54.6289 44.7656 54.1484 44.3906 53.7266ZM47.2148 55.7773L46.6875 57.8281C47.6133 58.0156 48.3047 58.0742 49.1719 57.9805L48.9141 55.8828C48.3398 55.9766 47.7773 55.918 47.2148 55.7773Z" fill="#1E1E1E"/>
</svg>
