<svg width="61" height="61" viewBox="0 0 61 61" fill="none" xmlns="http://www.w3.org/2000/svg">
<path fill-rule="evenodd" clip-rule="evenodd" d="M52.0625 13.625C53.3057 13.625 54.498 13.1311 55.3771 12.2521C56.2561 11.373 56.75 10.1807 56.75 8.9375C56.75 7.6943 56.2561 6.50201 55.3771 5.62294C54.498 4.74386 53.3057 4.25 52.0625 4.25C50.8193 4.25 49.627 4.74386 48.7479 5.62294C47.8689 6.50201 47.375 7.6943 47.375 8.9375C47.375 10.1807 47.8689 11.373 48.7479 12.2521C49.627 13.1311 50.8193 13.625 52.0625 13.625ZM36.125 30.5C36.125 31.9918 35.5324 33.4226 34.4775 34.4775C33.4226 35.5324 31.9918 36.125 30.5 36.125C29.0082 36.125 27.5774 35.5324 26.5225 34.4775C25.4676 33.4226 24.875 31.9918 24.875 30.5C24.875 29.0082 25.4676 27.5774 26.5225 26.5225C27.5774 25.4676 29.0082 24.875 30.5 24.875C31.9918 24.875 33.4226 25.4676 34.4775 26.5225C35.5324 27.5774 36.125 29.0082 36.125 30.5ZM30.5 41.75C32.9942 41.7502 35.4178 40.9215 37.3898 39.3942C39.3617 37.8669 40.7702 35.7275 41.3937 33.3125H48.3125C48.58 33.67 48.8925 33.9825 49.25 34.25V48.3125C48.4629 48.9028 47.8816 49.7258 47.5882 50.6648C47.2949 51.6039 47.3044 52.6115 47.6155 53.5448C47.9267 54.4782 48.5236 55.2899 49.3217 55.8652C50.1198 56.4404 51.0787 56.75 52.0625 56.75C53.0463 56.75 54.0052 56.4404 54.8033 55.8652C55.6014 55.2899 56.1983 54.4782 56.5095 53.5448C56.8206 52.6115 56.8301 51.6039 56.5368 50.6648C56.2434 49.7258 55.6621 48.9028 54.875 48.3125V34.25C55.4123 33.847 55.8567 33.3333 56.1781 32.7437C56.4996 32.154 56.6906 31.5022 56.7382 30.8323C56.7858 30.1624 56.6889 29.4901 56.4541 28.8609C56.2192 28.2317 55.8519 27.6603 55.3771 27.1854C54.9022 26.7106 54.3308 26.3433 53.7016 26.1084C53.0724 25.8736 52.4001 25.7767 51.7302 25.8243C51.0603 25.8719 50.4085 26.0629 49.8188 26.3844C49.2292 26.7058 48.7155 27.1502 48.3125 27.6875H41.3937C40.8914 25.7414 39.8769 23.9655 38.4557 22.5443C37.0345 21.1231 35.2586 20.1086 33.3125 19.6062V12.6875C33.8498 12.2845 34.2942 11.7709 34.6156 11.1812C34.9371 10.5915 35.1281 9.93969 35.1757 9.26979C35.2233 8.5999 35.1264 7.92759 34.8916 7.2984C34.6567 6.66921 34.2894 6.09782 33.8146 5.62294C33.3397 5.14805 32.7683 4.78076 32.1391 4.54592C31.5099 4.31108 30.8376 4.21419 30.1677 4.26179C29.4978 4.3094 28.846 4.5004 28.2563 4.82186C27.6666 5.14332 27.153 5.58773 26.75 6.125H12.6875C12.0972 5.33794 11.2742 4.75656 10.3352 4.46322C9.39609 4.16987 8.38852 4.17944 7.45518 4.49055C6.52184 4.80166 5.71005 5.39855 5.1348 6.19667C4.55955 6.99479 4.25 7.95368 4.25 8.9375C4.25 9.92132 4.55955 10.8802 5.1348 11.6783C5.71005 12.4764 6.52184 13.0733 7.45518 13.3845C8.38852 13.6956 9.39609 13.7051 10.3352 13.4118C11.2742 13.1184 12.0972 12.5371 12.6875 11.75H26.75C27.0175 12.1075 27.33 12.42 27.6875 12.6875V19.6062C25.0412 20.2959 22.7365 21.9255 21.2042 24.1907C19.6719 26.4558 19.0169 29.2013 19.3614 31.9142C19.706 34.6272 21.0266 37.1218 23.0765 38.9319C25.1264 40.742 27.7653 41.7438 30.5 41.75ZM8.9375 56.75C10.1807 56.75 11.373 56.2561 12.2521 55.3771C13.1311 54.498 13.625 53.3057 13.625 52.0625C13.625 50.8193 13.1311 49.627 12.2521 48.7479C11.373 47.8689 10.1807 47.375 8.9375 47.375C7.6943 47.375 6.50201 47.8689 5.62294 48.7479C4.74386 49.627 4.25 50.8193 4.25 52.0625C4.25 53.3057 4.74386 54.498 5.62294 55.3771C6.50201 56.2561 7.6943 56.75 8.9375 56.75ZM35.1875 52.0625C35.1875 53.3057 34.6936 54.498 33.8146 55.3771C32.9355 56.2561 31.7432 56.75 30.5 56.75C29.2568 56.75 28.0645 56.2561 27.1854 55.3771C26.3064 54.498 25.8125 53.3057 25.8125 52.0625C25.8125 50.8193 26.3064 49.627 27.1854 48.7479C28.0645 47.8689 29.2568 47.375 30.5 47.375C31.7432 47.375 32.9355 47.8689 33.8146 48.7479C34.6936 49.627 35.1875 50.8193 35.1875 52.0625ZM13.625 30.5C13.625 31.7432 13.1311 32.9355 12.2521 33.8146C11.373 34.6936 10.1807 35.1875 8.9375 35.1875C7.6943 35.1875 6.50201 34.6936 5.62294 33.8146C4.74386 32.9355 4.25 31.7432 4.25 30.5C4.25 29.2568 4.74386 28.0645 5.62294 27.1854C6.50201 26.3064 7.6943 25.8125 8.9375 25.8125C10.1807 25.8125 11.373 26.3064 12.2521 27.1854C13.1311 28.0645 13.625 29.2568 13.625 30.5Z" fill="#1E1E1E"/>
</svg>
