<svg width="60" height="60" viewBox="0 0 60 60" fill="none" xmlns="http://www.w3.org/2000/svg">
<path d="M26.65 26.6504C25.7581 27.5376 25.2546 28.7424 25.25 30.0004C25.25 31.2602 25.7504 32.4684 26.6412 33.3591C27.532 34.2499 28.7402 34.7504 30 34.7504C31.258 34.7457 32.4628 34.2423 33.35 33.3504" stroke="#1E1E1E" stroke-width="3.75" stroke-linecap="round" stroke-linejoin="round"/>
<path d="M30 15.75C27.1816 15.75 24.4265 16.5857 22.0831 18.1516C19.7397 19.7174 17.9133 21.9429 16.8347 24.5468C15.7562 27.1506 15.474 30.0158 16.0238 32.78C16.5737 35.5443 17.9308 38.0834 19.9237 40.0763C21.9166 42.0692 24.4557 43.4264 27.22 43.9762C29.9842 44.526 32.8494 44.2438 35.4532 43.1653C38.0571 42.0867 40.2826 40.2603 41.8484 37.9169C43.4143 35.5735 44.25 32.8184 44.25 30" stroke="#1E1E1E" stroke-width="3.75" stroke-linecap="round" stroke-linejoin="round"/>
<path d="M30 6.25C25.3027 6.25 20.7109 7.64291 16.8052 10.2526C12.8995 12.8623 9.85545 16.5715 8.05787 20.9113C6.26029 25.251 5.78996 30.0263 6.70636 34.6334C7.62276 39.2404 9.88473 43.4723 13.2062 46.7938C16.5277 50.1153 20.7596 52.3773 25.3666 53.2937C29.9737 54.2101 34.749 53.7397 39.0887 51.9421C43.4285 50.1446 47.1377 47.1005 49.7474 43.1948C52.3571 39.2891 53.75 34.6973 53.75 30M38.8125 21.19L32.375 27.625" stroke="#1E1E1E" stroke-width="3.75" stroke-linecap="round" stroke-linejoin="round"/>
<path d="M52.351 14.6108L44.251 15.7508L45.391 7.65085C45.3994 7.55676 45.3795 7.46232 45.3339 7.37959C45.2884 7.29686 45.2192 7.2296 45.1352 7.18639C45.0512 7.14319 44.9562 7.12601 44.8624 7.13704C44.7686 7.14808 44.6802 7.18683 44.6085 7.24835L39.2385 12.5908C38.687 13.1464 38.2813 13.8297 38.0575 14.5799C37.8338 15.3301 37.7989 16.1239 37.956 16.8908L38.811 21.1908L43.111 22.0433C43.878 22.2005 44.6718 22.1656 45.422 21.9419C46.1722 21.7181 46.8555 21.3124 47.411 20.7608L52.751 15.3933C52.8128 15.3215 52.8516 15.2329 52.8626 15.1388C52.8736 15.0447 52.8562 14.9495 52.8127 14.8654C52.7691 14.7813 52.7014 14.7121 52.6183 14.6667C52.5351 14.6214 52.4403 14.6019 52.346 14.6108" stroke="#1E1E1E" stroke-width="3.75" stroke-linecap="round" stroke-linejoin="round"/>
</svg>
