<svg width="61" height="61" viewBox="0 0 61 61" fill="none" xmlns="http://www.w3.org/2000/svg">
<g clip-path="url(#clip0_2083_5771)">
<path fill-rule="evenodd" clip-rule="evenodd" d="M25.9724 15.2652C26.2019 14.8405 26.543 14.4866 26.9589 14.2416C27.3748 13.9967 27.8498 13.8699 28.3324 13.8752L33.5824 13.9552C34.0638 13.9657 34.5331 14.1072 34.9401 14.3644C35.3471 14.6217 35.6763 14.9849 35.8924 15.4152L37.9924 19.6352L41.7024 19.3202C42.1775 19.2824 42.6539 19.3735 43.0816 19.5838C43.5092 19.7941 43.8723 20.1159 44.1324 20.5152L46.7824 24.6252C47.067 25.0677 47.2121 25.5857 47.1987 26.1117C47.1853 26.6377 47.0142 27.1476 46.7074 27.5752L44.7574 30.3052L46.8324 33.0452C47.4774 33.8952 47.5424 35.0552 46.9924 35.9752L44.4924 40.1652C44.2439 40.5761 43.8885 40.9118 43.464 41.1364C43.0395 41.3609 42.562 41.4659 42.0824 41.4402L38.1574 41.2002L35.7424 46.1452C35.5238 46.5847 35.1874 46.955 34.7707 47.2145C34.354 47.4741 33.8734 47.6128 33.3824 47.6152H27.9724C27.4823 47.6119 27.0028 47.4727 26.587 47.2132C26.1713 46.9537 25.8356 46.584 25.6174 46.1452L23.3474 41.5002L19.1474 41.8802C18.6633 41.9208 18.1773 41.8276 17.7425 41.6106C17.3078 41.3937 16.9411 41.0614 16.6824 40.6502L14.0274 36.3752C13.7458 35.9214 13.6093 35.3926 13.6361 34.8592C13.6629 34.3259 13.8518 33.8134 14.1774 33.3902L16.5774 30.2652L14.6474 27.5702C14.3414 27.1421 14.1712 26.632 14.1587 26.1059C14.1462 25.5799 14.2921 25.0622 14.5774 24.6202L17.2274 20.5102C17.4872 20.1117 17.8494 19.7904 18.2761 19.5802C18.7028 19.3699 19.1782 19.2784 19.6524 19.3152L23.6374 19.6552L25.9724 15.2652ZM28.9624 17.6352L26.6024 22.0752C26.3588 22.5273 25.989 22.899 25.5381 23.1449C25.0872 23.3907 24.5745 23.5003 24.0624 23.4602L20.0124 23.1152L18.1424 26.0152L20.1124 28.7652C20.4401 29.2226 20.6122 29.7733 20.6032 30.3359C20.5942 30.8986 20.4046 31.4434 20.0624 31.8902L17.6224 35.0602L19.5024 38.0902L23.7824 37.7002C24.3127 37.651 24.8455 37.7644 25.3099 38.0251C25.7742 38.2859 26.1483 38.6818 26.3824 39.1602L28.6774 43.8652H32.6774L35.1174 38.8802C35.3479 38.4172 35.7089 38.0318 36.1558 37.7715C36.6027 37.5111 37.116 37.3873 37.6324 37.4152L41.6224 37.6552L43.3824 34.7052L41.2624 31.9052C40.9252 31.4587 40.7394 30.9162 40.7322 30.3567C40.725 29.7973 40.8968 29.2501 41.2224 28.7952L43.2174 26.0152L41.3474 23.1152L37.5474 23.4352C37.0222 23.4799 36.4958 23.3655 36.0365 23.1069C35.5772 22.8483 35.2064 22.4574 34.9724 21.9852L32.8374 17.6952L28.9624 17.6352Z" fill="#1E1E1E"/>
<path d="M51.9111 37.7502C50.3943 42.4324 47.3841 46.4882 43.3418 49.2959C39.2995 52.1036 34.448 53.5085 29.5308 53.2951C24.6137 53.0818 19.9021 51.262 16.1182 48.1147C12.3342 44.9674 9.68661 40.6662 8.58109 35.8702L12.8361 35.0302L4.73609 26.6502L0.496094 37.4852L4.98109 36.6052C6.23277 42.2351 9.30378 47.2962 13.7195 51.0062C18.1353 54.7163 23.65 56.8688 29.4115 57.1311C35.173 57.3934 40.8605 55.751 45.5951 52.4576C50.3298 49.1641 53.848 44.4031 55.6061 38.9102L51.9111 37.7502ZM56.0911 25.0502C54.8388 19.4204 51.7673 14.3597 47.3512 10.6502C42.935 6.94071 37.4202 4.78881 31.6588 4.52706C25.8973 4.26531 20.2101 5.90827 15.4758 9.20207C10.7415 12.4959 7.22374 17.2571 5.46609 22.7502L9.03109 23.9102C10.5474 19.2278 13.5571 15.1718 17.5991 12.3637C21.6411 9.55557 26.4923 8.15021 31.4094 8.36299C36.3265 8.57577 41.0382 10.3949 44.8225 13.5417C48.6068 16.6885 51.255 20.9894 52.3611 25.7852L48.1061 26.6302L56.2061 34.9902L60.4961 24.1702L56.0911 25.0502Z" fill="#1E1E1E"/>
<path fill-rule="evenodd" clip-rule="evenodd" d="M30.5 28.875C30.0027 28.875 29.5258 29.0725 29.1742 29.4242C28.8225 29.7758 28.625 30.2527 28.625 30.75C28.625 31.2473 28.8225 31.7242 29.1742 32.0758C29.5258 32.4275 30.0027 32.625 30.5 32.625C30.9973 32.625 31.4742 32.4275 31.8258 32.0758C32.1775 31.7242 32.375 31.2473 32.375 30.75C32.375 30.2527 32.1775 29.7758 31.8258 29.4242C31.4742 29.0725 30.9973 28.875 30.5 28.875ZM24.875 30.75C24.875 29.2582 25.4676 27.8274 26.5225 26.7725C27.5774 25.7176 29.0082 25.125 30.5 25.125C31.9918 25.125 33.4226 25.7176 34.4775 26.7725C35.5324 27.8274 36.125 29.2582 36.125 30.75C36.125 32.2418 35.5324 33.6726 34.4775 34.7275C33.4226 35.7824 31.9918 36.375 30.5 36.375C29.0082 36.375 27.5774 35.7824 26.5225 34.7275C25.4676 33.6726 24.875 32.2418 24.875 30.75Z" fill="#1E1E1E"/>
</g>
<defs>
<clipPath id="clip0_2083_5771">
<rect width="60" height="60" fill="white" transform="translate(0.5 0.75)"/>
</clipPath>
</defs>
</svg>
